<svg version="1.1" id="Layer_1" xmlns="http://www.w3.org/2000/svg" xmlns:xlink="http://www.w3.org/1999/xlink" x="0px" y="0px"
	 width="100%" viewBox="0 0 512 512" enable-background="new 0 0 512 512" xml:space="preserve">
<path fill="#000000" opacity="1.000000" stroke="none" 
	d="
M297.000000,513.000000 
	C198.024033,513.000000 99.548058,513.000000 1.036045,513.000000 
	C1.036045,342.399017 1.036045,171.798004 1.036045,1.098500 
	C171.559311,1.098500 342.118713,1.098500 512.839050,1.098500 
	C512.839050,171.666550 512.839050,342.333252 512.839050,513.000000 
	C441.131317,513.000000 369.315643,513.000000 297.000000,513.000000 
M258.052521,480.976318 
	C311.371307,480.984436 364.690125,481.014343 418.008850,480.957733 
	C422.091766,480.953400 426.231781,480.664368 430.247467,479.954407 
	C461.308075,474.463043 481.698639,449.732513 481.827240,419.716125 
	C482.274170,315.412964 482.017578,211.106705 481.957275,106.801674 
	C481.953583,100.377258 481.814636,93.885406 480.917938,87.540909 
	C477.335632,62.193310 463.859406,44.283176 439.310608,36.250187 
	C431.249115,33.612263 422.208435,33.251995 413.598358,33.137032 
	C385.944092,32.767776 358.281830,32.978642 330.622681,33.006378 
	C306.133026,33.030937 281.643433,33.109848 256.206482,33.022633 
	C203.730286,33.015057 151.253693,33.121868 98.778152,32.932491 
	C82.330704,32.873131 67.628792,36.965031 54.759712,47.584194 
	C41.091530,58.862747 33.280487,73.519974 33.214390,90.768372 
	C32.793060,200.717102 32.992687,310.668243 33.007572,420.618591 
	C33.009834,437.327820 39.533901,451.709625 51.037830,463.175629 
	C62.978508,475.076874 78.250732,480.858063 95.237762,480.951324 
	C126.389427,481.122314 157.542709,481.020599 188.695297,480.993225 
	C211.514755,480.973175 234.334137,480.890167 258.052521,480.976318 
z"/>
<path fill="#0095FF" opacity="1.000000" stroke="none" 
	d="
M257.153564,480.835236 
	C234.334137,480.890167 211.514755,480.973175 188.695297,480.993225 
	C157.542709,481.020599 126.389427,481.122314 95.237762,480.951324 
	C78.250732,480.858063 62.978508,475.076874 51.037830,463.175629 
	C39.533901,451.709625 33.009834,437.327820 33.007572,420.618591 
	C32.992687,310.668243 32.793060,200.717102 33.214390,90.768372 
	C33.280487,73.519974 41.091530,58.862747 54.759712,47.584194 
	C67.628792,36.965031 82.330704,32.873131 98.778152,32.932491 
	C151.253693,33.121868 203.730286,33.015057 256.666626,33.551548 
	C257.121094,56.689236 257.135895,79.298065 257.076019,101.906693 
	C257.070404,104.021835 256.592865,106.135727 256.174530,107.896904 
	C253.160934,101.014404 248.469620,97.146187 240.667145,97.162361 
	C229.978485,98.838898 225.052628,104.480949 225.012192,114.722649 
	C224.972061,124.888489 224.871597,135.057083 225.053223,145.219910 
	C225.214905,154.266647 231.874924,160.644882 241.402603,161.000061 
	C249.300110,160.726974 253.764969,156.421448 256.606293,150.197052 
	C256.810059,159.801682 256.855469,169.012665 256.472656,178.219513 
	C251.083633,177.860306 246.122864,177.505219 240.707809,177.072495 
	C206.532486,178.801559 182.102509,194.772400 167.853363,225.417709 
	C161.046143,240.057892 159.140503,255.592636 162.730057,271.734619 
	C161.358673,272.901306 160.261368,273.916595 159.099518,274.851685 
	C132.364761,296.368469 122.446312,332.964111 134.676651,365.001343 
	C146.669388,396.416168 175.887970,416.302490 210.688995,416.654694 
	C226.169464,416.811340 241.651230,416.837524 257.131775,417.396301 
	C257.138611,438.858246 257.146088,459.846741 257.153564,480.835236 
M109.503380,273.003448 
	C116.153008,272.999634 122.806953,273.145874 129.451218,272.955109 
	C138.303146,272.700989 145.093994,265.502686 145.003235,256.773560 
	C144.914566,248.246719 138.216415,241.222046 129.528122,241.058472 
	C118.560112,240.851990 107.582672,240.858826 96.614265,241.053619 
	C87.930626,241.207825 81.181984,248.198975 81.031303,256.707947 
	C80.876961,265.423737 87.668335,272.615387 96.537521,272.965240 
	C100.521240,273.122375 104.516006,272.999329 109.503380,273.003448 
M129.877609,168.605194 
	C136.577789,175.305786 143.225037,182.060394 149.992798,188.692017 
	C156.992218,195.550644 166.701584,195.758865 173.148438,189.331757 
	C179.651657,182.848511 179.499542,173.211197 172.610657,166.171341 
	C165.518661,158.923920 158.409042,151.684021 151.041977,144.721375 
	C148.841675,142.641861 145.926147,140.898987 143.031509,140.058456 
	C136.223846,138.081726 128.993240,141.364197 125.493286,147.364960 
	C121.560127,154.108414 122.918251,161.369843 129.877609,168.605194 
z"/>
<path fill="#5A7AE4" opacity="1.000000" stroke="none" 
	d="
M257.603027,480.905762 
	C257.146088,459.846741 257.138611,438.858246 257.581909,417.308655 
	C268.309174,416.704376 278.585724,416.661194 289.322815,416.760681 
	C322.745056,416.931061 355.706787,416.976837 388.668457,416.944366 
	C390.803955,416.942261 392.952881,416.410400 395.071869,416.002136 
	C414.185730,412.319427 430.786530,394.571716 432.915039,375.580231 
	C435.357635,353.785889 424.534790,334.357758 405.145111,326.265106 
	C402.180023,325.027618 401.042908,323.545624 401.132599,320.423615 
	C401.483307,308.216980 398.891632,296.548157 393.214722,285.794983 
	C377.608673,256.234039 353.077820,240.995468 319.374329,240.352112 
	C316.830933,228.011826 311.672241,217.323853 304.189789,207.734207 
	C292.024078,192.142380 275.861359,182.936798 256.900879,178.223633 
	C256.855469,169.012665 256.810059,159.801682 256.670166,149.816605 
	C256.495239,135.445068 256.414825,121.847633 256.334442,108.250198 
	C256.592865,106.135727 257.070404,104.021835 257.076019,101.906693 
	C257.135895,79.298065 257.121094,56.689236 257.140320,33.622616 
	C281.643433,33.109848 306.133026,33.030937 330.622681,33.006378 
	C358.281830,32.978642 385.944092,32.767776 413.598358,33.137032 
	C422.208435,33.251995 431.249115,33.612263 439.310608,36.250187 
	C463.859406,44.283176 477.335632,62.193310 480.917938,87.540909 
	C481.814636,93.885406 481.953583,100.377258 481.957275,106.801674 
	C482.017578,211.106705 482.274170,315.412964 481.827240,419.716125 
	C481.698639,449.732513 461.308075,474.463043 430.247467,479.954407 
	C426.231781,480.664368 422.091766,480.953400 418.008850,480.957733 
	C364.690125,481.014343 311.371307,480.984436 257.603027,480.905762 
M357.959930,149.852539 
	C351.992188,137.984741 340.153381,135.892639 330.655151,145.149384 
	C323.514648,152.108337 316.455811,159.155472 309.509155,166.307617 
	C302.876099,173.136871 302.715271,182.728256 308.896881,189.128143 
	C315.219147,195.673676 325.062897,195.695419 332.054504,188.923355 
	C339.454742,181.755432 346.694031,174.419373 353.923126,167.077484 
	C358.473907,162.455673 360.118439,156.981613 357.959930,149.852539 
z"/>
<path fill="#EAF0F2" opacity="1.000000" stroke="none" 
	d="
M288.862274,416.617981 
	C278.585724,416.661194 268.309174,416.704376 257.582520,416.835236 
	C241.651230,416.837524 226.169464,416.811340 210.688995,416.654694 
	C175.887970,416.302490 146.669388,396.416168 134.676651,365.001343 
	C122.446312,332.964111 132.364761,296.368469 159.099518,274.851685 
	C160.261368,273.916595 161.358673,272.901306 163.077087,271.595947 
	C178.229874,261.586365 194.226532,255.811401 211.715027,257.313171 
	C221.474442,258.151184 230.985947,261.876343 240.830933,264.564728 
	C246.676880,268.485474 252.301071,272.141968 258.081879,275.900299 
	C266.383667,265.113861 275.708801,255.635696 288.293457,250.077057 
	C288.666504,258.093628 288.978729,265.727295 288.978729,273.360931 
	C288.978668,321.113281 288.908966,368.865631 288.862274,416.617981 
z"/>
<path fill="#FEDF60" opacity="1.000000" stroke="none" 
	d="
M240.609161,264.300476 
	C230.985947,261.876343 221.474442,258.151184 211.715027,257.313171 
	C194.226532,255.811401 178.229874,261.586365 163.321075,271.407227 
	C159.140503,255.592636 161.046143,240.057892 167.853363,225.417709 
	C182.102509,194.772400 206.532486,178.801559 240.663696,177.530640 
	C241.046310,200.671280 241.043732,223.276215 240.974655,245.880951 
	C240.955902,252.021103 240.736496,258.160645 240.609161,264.300476 
z"/>
<path fill="#FFC902" opacity="1.000000" stroke="none" 
	d="
M240.830933,264.564728 
	C240.736496,258.160645 240.955902,252.021103 240.974655,245.880951 
	C241.043732,223.276215 241.046310,200.671280 241.117981,177.608276 
	C246.122864,177.505219 251.083633,177.860306 256.472656,178.219513 
	C275.861359,182.936798 292.024078,192.142380 304.189789,207.734207 
	C311.672241,217.323853 316.830933,228.011826 318.907532,240.453735 
	C307.720245,241.516617 297.440735,243.992523 288.088287,249.694138 
	C275.708801,255.635696 266.383667,265.113861 258.081879,275.900299 
	C252.301071,272.141968 246.676880,268.485474 240.830933,264.564728 
z"/>
<path fill="#FDDE60" opacity="1.000000" stroke="none" 
	d="
M109.004570,273.003448 
	C104.516006,272.999329 100.521240,273.122375 96.537521,272.965240 
	C87.668335,272.615387 80.876961,265.423737 81.031303,256.707947 
	C81.181984,248.198975 87.930626,241.207825 96.614265,241.053619 
	C107.582672,240.858826 118.560112,240.851990 129.528122,241.058472 
	C138.216415,241.222046 144.914566,248.246719 145.003235,256.773560 
	C145.093994,265.502686 138.303146,272.700989 129.451218,272.955109 
	C122.806953,273.145874 116.153008,272.999634 109.004570,273.003448 
z"/>
<path fill="#FDDE60" opacity="1.000000" stroke="none" 
	d="
M129.624695,168.353607 
	C122.918251,161.369843 121.560127,154.108414 125.493286,147.364960 
	C128.993240,141.364197 136.223846,138.081726 143.031509,140.058456 
	C145.926147,140.898987 148.841675,142.641861 151.041977,144.721375 
	C158.409042,151.684021 165.518661,158.923920 172.610657,166.171341 
	C179.499542,173.211197 179.651657,182.848511 173.148438,189.331757 
	C166.701584,195.758865 156.992218,195.550644 149.992798,188.692017 
	C143.225037,182.060394 136.577789,175.305786 129.624695,168.353607 
z"/>
<path fill="#FEC903" opacity="1.000000" stroke="none" 
	d="
M256.174530,107.896904 
	C256.414825,121.847633 256.495239,135.445068 256.511780,149.422943 
	C253.764969,156.421448 249.300110,160.726974 241.397675,160.537323 
	C241.017593,139.060715 241.038330,118.138130 241.059052,97.215546 
	C248.469620,97.146187 253.160934,101.014404 256.174530,107.896904 
z"/>
<path fill="#FDDE60" opacity="1.000000" stroke="none" 
	d="
M240.667145,97.162361 
	C241.038330,118.138130 241.017593,139.060715 241.001801,160.446045 
	C231.874924,160.644882 225.214905,154.266647 225.053223,145.219910 
	C224.871597,135.057083 224.972061,124.888489 225.012192,114.722649 
	C225.052628,104.480949 229.978485,98.838898 240.667145,97.162361 
z"/>
<path fill="#C3CBCD" opacity="1.000000" stroke="none" 
	d="
M288.293457,250.077057 
	C297.440735,243.992523 307.720245,241.516617 319.012604,240.838989 
	C353.077820,240.995468 377.608673,256.234039 393.214722,285.794983 
	C398.891632,296.548157 401.483307,308.216980 401.132599,320.423615 
	C401.042908,323.545624 402.180023,325.027618 405.145111,326.265106 
	C424.534790,334.357758 435.357635,353.785889 432.915039,375.580231 
	C430.786530,394.571716 414.185730,412.319427 395.071869,416.002136 
	C392.952881,416.410400 390.803955,416.942261 388.668457,416.944366 
	C355.706787,416.976837 322.745056,416.931061 289.322815,416.760681 
	C288.908966,368.865631 288.978668,321.113281 288.978729,273.360931 
	C288.978729,265.727295 288.666504,258.093628 288.293457,250.077057 
z"/>
<path fill="#FCC805" opacity="1.000000" stroke="none" 
	d="
M358.057526,150.242096 
	C360.118439,156.981613 358.473907,162.455673 353.923126,167.077484 
	C346.694031,174.419373 339.454742,181.755432 332.054504,188.923355 
	C325.062897,195.695419 315.219147,195.673676 308.896881,189.128143 
	C302.715271,182.728256 302.876099,173.136871 309.509155,166.307617 
	C316.455811,159.155472 323.514648,152.108337 330.655151,145.149384 
	C340.153381,135.892639 351.992188,137.984741 358.057526,150.242096 
z"/>
</svg>